HIERARCHY
ROOT Hips
{
	OFFSET 0.000000 97.167313 0.000000
	CHANNELS 6 Xposition Yposition Zposition Xrotation Yrotation Zrotation
	JOINT Spine
	{
		OFFSET 0.000000 13.784798 0.064400
		CHANNELS 3 Xrotation Yrotation Zrotation
		JOINT Spine1
		{
			OFFSET 0.000000 12.037903 0.404700
			CHANNELS 3 Xrotation Yrotation Zrotation
			JOINT Spine2
			{
				OFFSET 0.000000 17.795601 0.420200
				CHANNELS 3 Xrotation Yrotation Zrotation
				JOINT Neck
				{
					OFFSET 0.000000 39.131302 11.954600
					CHANNELS 3 Xrotation Yrotation Zrotation
					JOINT Head
					{
						OFFSET 0.000000 14.456192 15.627699
						CHANNELS 3 Xrotation Yrotation Zrotation
						JOINT HeadTop_End
						{
							OFFSET 0.000000 15.703506 7.603401
							CHANNELS 3 Xrotation Yrotation Zrotation
							End Site
							{
								OFFSET 0.000000 17.447403 0.000000
							}
						}
					}
				}
				JOINT LeftShoulder
				{
					OFFSET 17.399500 24.608795 1.168800
					CHANNELS 3 Xrotation Yrotation Zrotation
					JOINT LeftArm
					{
						OFFSET 18.980635 5.765305 1.818600
						CHANNELS 3 Xrotation Yrotation Zrotation
						JOINT LeftForeArm
						{
							OFFSET 49.290169 0.000000 0.000000
							CHANNELS 3 Xrotation Yrotation Zrotation
							JOINT LeftHand
							{
								OFFSET 31.562012 0.000000 0.000000
								CHANNELS 3 Xrotation Yrotation Zrotation
								JOINT LeftHandThumb1
								{
									OFFSET 6.133995 -4.388519 7.076070
									CHANNELS 3 Xrotation Yrotation Zrotation
									JOINT LeftHandThumb2
									{
										OFFSET 6.037666 -3.485840 3.485847
										CHANNELS 3 Xrotation Yrotation Zrotation
										JOINT LeftHandThumb3
										{
											OFFSET 6.496506 -3.750763 3.750761
											CHANNELS 3 Xrotation Yrotation Zrotation
											JOINT LeftHandThumb4
											{
												OFFSET 5.616882 -3.242905 3.242910
												CHANNELS 3 Xrotation Yrotation Zrotation
												End Site
												{
													OFFSET -1.254608 7.132141 0.375429
												}
											}
										}
									}
								}
								JOINT LeftHandPinky1
								{
									OFFSET 18.920792 -0.453171 -11.426712
									CHANNELS 3 Xrotation Yrotation Zrotation
									JOINT LeftHandPinky2
									{
										OFFSET 4.919586 0.000000 0.000000
										CHANNELS 3 Xrotation Yrotation Zrotation
										JOINT LeftHandPinky3
										{
											OFFSET 5.233047 0.000000 0.000000
											CHANNELS 3 Xrotation Yrotation Zrotation
											JOINT LeftHandPinky4
											{
												OFFSET 5.571716 0.000000 0.000000
												CHANNELS 3 Xrotation Yrotation Zrotation
												End Site
												{
													OFFSET -3.459808 4.342407 -0.466164
												}
											}
										}
									}
								}
								JOINT LeftHandRing1
								{
									OFFSET 22.726120 -0.094986 -6.500475
									CHANNELS 3 Xrotation Yrotation Zrotation
									JOINT LeftHandRing2
									{
										OFFSET 6.408615 0.000000 0.000000
										CHANNELS 3 Xrotation Yrotation Zrotation
										JOINT LeftHandRing3
										{
											OFFSET 6.150223 0.000000 0.000000
											CHANNELS 3 Xrotation Yrotation Zrotation
											JOINT LeftHandRing4
											{
												OFFSET 6.145386 0.000000 0.000000
												CHANNELS 3 Xrotation Yrotation Zrotation
												End Site
												{
													OFFSET -3.671402 4.923981 -0.202372
												}
											}
										}
									}
								}
								JOINT LeftHandMiddle1
								{
									OFFSET 23.373947 0.000000 0.000001
									CHANNELS 3 Xrotation Yrotation Zrotation
									JOINT LeftHandMiddle2
									{
										OFFSET 6.996567 0.000000 0.000000
										CHANNELS 3 Xrotation Yrotation Zrotation
										JOINT LeftHandMiddle3
										{
											OFFSET 7.015945 0.000000 0.000000
											CHANNELS 3 Xrotation Yrotation Zrotation
											JOINT LeftHandMiddle4
											{
												OFFSET 7.721573 0.000000 0.000000
												CHANNELS 3 Xrotation Yrotation Zrotation
												End Site
												{
													OFFSET -4.651108 6.158463 0.251582
												}
											}
										}
									}
								}
								JOINT LeftHandIndex1
								{
									OFFSET 21.310577 -0.490082 6.209344
									CHANNELS 3 Xrotation Yrotation Zrotation
									JOINT LeftHandIndex2
									{
										OFFSET 7.536453 0.000000 0.000000
										CHANNELS 3 Xrotation Yrotation Zrotation
										JOINT LeftHandIndex3
										{
											OFFSET 7.512344 0.000000 0.000000
											CHANNELS 3 Xrotation Yrotation Zrotation
											JOINT LeftHandIndex4
											{
												OFFSET 10.212402 0.000000 0.000001
												CHANNELS 3 Xrotation Yrotation Zrotation
												End Site
												{
													OFFSET -5.180801 8.690506 1.388433
												}
											}
										}
									}
								}
							}
						}
					}
				}
				JOINT RightShoulder
				{
					OFFSET -17.399500 24.608795 1.168800
					CHANNELS 3 Xrotation Yrotation Zrotation
					JOINT RightArm
					{
						OFFSET -18.980635 5.765305 1.818600
						CHANNELS 3 Xrotation Yrotation Zrotation
						JOINT RightForeArm
						{
							OFFSET -49.290169 0.000000 0.000000
							CHANNELS 3 Xrotation Yrotation Zrotation
							JOINT RightHand
							{
								OFFSET -31.562012 0.000000 0.000000
								CHANNELS 3 Xrotation Yrotation Zrotation
								JOINT RightHandThumb1
								{
									OFFSET -6.133995 -4.388519 7.076070
									CHANNELS 3 Xrotation Yrotation Zrotation
									JOINT RightHandThumb2
									{
										OFFSET -6.037666 -3.485840 3.485847
										CHANNELS 3 Xrotation Yrotation Zrotation
										JOINT RightHandThumb3
										{
											OFFSET -6.496506 -3.750763 3.750761
											CHANNELS 3 Xrotation Yrotation Zrotation
											JOINT RightHandThumb4
											{
												OFFSET -5.616882 -3.242905 3.242910
												CHANNELS 3 Xrotation Yrotation Zrotation
												End Site
												{
													OFFSET 1.254608 7.132141 0.375429
												}
											}
										}
									}
								}
								JOINT RightHandIndex1
								{
									OFFSET -21.310577 -0.490082 6.209344
									CHANNELS 3 Xrotation Yrotation Zrotation
									JOINT RightHandIndex2
									{
										OFFSET -7.536453 0.000000 0.000000
										CHANNELS 3 Xrotation Yrotation Zrotation
										JOINT RightHandIndex3
										{
											OFFSET -7.512344 0.000000 0.000000
											CHANNELS 3 Xrotation Yrotation Zrotation
											JOINT RightHandIndex4
											{
												OFFSET -10.212402 0.000000 0.000001
												CHANNELS 3 Xrotation Yrotation Zrotation
												End Site
												{
													OFFSET 5.180801 8.690506 1.388433
												}
											}
										}
									}
								}
								JOINT RightHandMiddle1
								{
									OFFSET -23.373947 0.000000 0.000001
									CHANNELS 3 Xrotation Yrotation Zrotation
									JOINT RightHandMiddle2
									{
										OFFSET -6.996567 0.000000 0.000000
										CHANNELS 3 Xrotation Yrotation Zrotation
										JOINT RightHandMiddle3
										{
											OFFSET -7.015945 0.000000 0.000000
											CHANNELS 3 Xrotation Yrotation Zrotation
											JOINT RightHandMiddle4
											{
												OFFSET -7.721573 0.000000 0.000000
												CHANNELS 3 Xrotation Yrotation Zrotation
												End Site
												{
													OFFSET 4.651108 6.158463 0.251582
												}
											}
										}
									}
								}
								JOINT RightHandRing1
								{
									OFFSET -22.726120 -0.094986 -6.500475
									CHANNELS 3 Xrotation Yrotation Zrotation
									JOINT RightHandRing2
									{
										OFFSET -6.408615 0.000000 0.000000
										CHANNELS 3 Xrotation Yrotation Zrotation
										JOINT RightHandRing3
										{
											OFFSET -6.150223 0.000000 0.000000
											CHANNELS 3 Xrotation Yrotation Zrotation
											JOINT RightHandRing4
											{
												OFFSET -6.145386 0.000000 0.000000
												CHANNELS 3 Xrotation Yrotation Zrotation
												End Site
												{
													OFFSET 3.671402 4.923981 -0.202372
												}
											}
										}
									}
								}
								JOINT RightHandPinky1
								{
									OFFSET -18.920792 -0.453171 -11.426712
									CHANNELS 3 Xrotation Yrotation Zrotation
									JOINT RightHandPinky2
									{
										OFFSET -4.919586 0.000000 0.000000
										CHANNELS 3 Xrotation Yrotation Zrotation
										JOINT RightHandPinky3
										{
											OFFSET -5.233047 0.000000 0.000000
											CHANNELS 3 Xrotation Yrotation Zrotation
											JOINT RightHandPinky4
											{
												OFFSET -5.571716 0.000000 0.000000
												CHANNELS 3 Xrotation Yrotation Zrotation
												End Site
												{
													OFFSET 3.459808 4.342407 -0.466164
												}
											}
										}
									}
								}
							}
						}
					}
				}
			}
		}
	}
	JOINT LeftUpLeg
	{
		OFFSET 19.899099 -7.885101 -3.429500
		CHANNELS 3 Xrotation Yrotation Zrotation
		JOINT LeftLeg
		{
			OFFSET 1.745560 -36.997807 10.304700
			CHANNELS 3 Xrotation Yrotation Zrotation
			JOINT LeftFoot
			{
				OFFSET -1.745558 -29.803308 -13.615400
				CHANNELS 3 Xrotation Yrotation Zrotation
				JOINT LeftToeBase
				{
					OFFSET 1.181900 -18.539904 15.226099
					CHANNELS 3 Xrotation Yrotation Zrotation
					JOINT LeftToe_End
					{
						OFFSET -0.863701 1.402801 16.534700
						CHANNELS 3 Xrotation Yrotation Zrotation
						End Site
						{
							OFFSET 0.000000 16.616566 0.000000
						}
					}
				}
			}
		}
	}
	JOINT RightUpLeg
	{
		OFFSET -19.899099 -7.885101 -3.429500
		CHANNELS 3 Xrotation Yrotation Zrotation
		JOINT RightLeg
		{
			OFFSET -1.745560 -36.997807 10.304700
			CHANNELS 3 Xrotation Yrotation Zrotation
			JOINT RightFoot
			{
				OFFSET 1.745558 -29.803308 -13.615400
				CHANNELS 3 Xrotation Yrotation Zrotation
				JOINT RightToeBase
				{
					OFFSET -1.181900 -18.539904 15.226099
					CHANNELS 3 Xrotation Yrotation Zrotation
					JOINT RightToe_End
					{
						OFFSET 0.863701 1.402801 16.534700
						CHANNELS 3 Xrotation Yrotation Zrotation
						End Site
						{
							OFFSET 0.000000 16.616566 0.000000
						}
					}
				}
			}
		}
	}
}
MOTION
Frames: 5
Frame Time: 0.033333
-5.391773 119.048462 4.881391 6.368953 -56.516441 -1.355861 3.157964 8.806608 8.188447 4.074362 8.436222 0.055645 4.081649 8.487454 -0.124900 7.077993 6.047968 -5.867469 -2.643328 17.371189 0.115775 0.000002 0.000001 -0.000000 2.413190 1.428358 -6.754329 -61.652238 -37.686887 -44.120795 0.000223 -80.325504 0.000205 -64.992884 15.282316 45.668547 -14.557464 10.837968 12.229969 0.749539 -4.257861 13.305469 -10.783668 -23.179394 -4.132384 -0.000003 -0.000001 -0.000002 -8.298309 -6.522672 -38.520143 2.848778 5.024389 -59.084422 0.876796 3.084717 -31.727503 -0.000000 0.000000 -0.000002 -6.054130 -0.166586 -49.857577 3.046280 5.137014 -61.313959 0.351703 2.001095 -19.935109 -0.000001 0.000001 0.000007 -2.430830 1.729223 -41.460915 2.952347 5.084720 -60.259938 1.321772 3.707977 -39.227839 0.000000 -0.000002 0.000001 -0.809527 2.578166 -31.496417 3.095890 5.163781 -61.866972 0.503761 2.378644 -23.913122 -0.000002 0.000001 0.000001 -15.311174 1.372128 -6.742080 63.813576 138.811861 -58.553450 0.000018 30.204746 -0.000008 -48.804253 -5.064274 -26.578430 8.377142 -4.904129 11.022008 21.620221 -18.183876 -18.379209 -0.702963 -49.821203 -32.535183 0.000003 -0.000002 0.000002 0.558920 -4.406569 25.436671 1.653037 -3.560342 49.799111 1.737724 -3.630048 51.149227 -0.000000 -0.000003 -0.000001 10.969807 -12.875582 52.800846 6.387608 -4.324407 111.833652 0.247396 -1.499130 18.739126 -0.000002 -0.000001 -0.000004 3.705068 -7.151344 57.622447 5.328216 -4.608673 98.293430 1.627352 -3.538507 49.383982 0.000000 0.000000 -0.000007 0.474810 -5.172966 58.987679 3.194316 -4.421926 71.674168 1.771402 -3.656915 51.679557 -0.000001 -0.000000 0.000002 -67.250056 -14.051619 45.436905 94.713530 -4.343837 -8.182262 44.059624 -7.117736 -5.504191 0.159027 -0.000003 0.000009 0.000000 0.000000 0.000000 -35.094318 -11.736798 -34.453212 73.896213 23.596695 15.430929 7.242751 -2.954007 28.593007 -0.000003 -0.000023 0.000006 -0.000001 -0.000000 -0.000001 
-5.507003 121.821220 5.124808 9.576618 -56.298135 0.679837 3.206988 9.601297 8.938104 4.230203 8.153391 0.315472 4.224615 8.232114 0.128792 9.049212 5.904417 -5.738935 -5.422319 18.284268 -1.309950 -0.000002 -0.000000 -0.000000 2.470539 0.862610 -6.862423 -61.756241 -37.671656 -44.001230 0.000075 -80.510384 0.000075 -64.307863 13.219029 45.762472 -14.557467 10.837968 12.229967 0.749544 -4.257861 13.305471 -10.783669 -23.179389 -4.132385 0.000001 0.000001 -0.000004 -8.298311 -6.522671 -38.520150 2.848778 5.024383 -59.084422 0.876795 3.084715 -31.727506 0.000003 0.000000 -0.000002 -6.054130 -0.166583 -49.857581 3.046283 5.137012 -61.313952 0.351703 2.001098 -19.935111 -0.000001 0.000000 0.000003 -2.430831 1.729225 -41.460911 2.952347 5.084720 -60.259945 1.321773 3.707978 -39.227839 -0.000000 -0.000002 0.000001 -0.809527 2.578170 -31.496420 3.095888 5.163779 -61.866972 0.503763 2.378645 -23.913124 0.000000 0.000001 0.000001 -15.341003 1.015994 -6.581521 64.149321 138.758039 -58.849634 0.000007 31.145055 0.000008 -46.646825 -4.681779 -26.168953 8.377141 -4.904126 11.022006 21.620216 -18.183878 -18.379206 -0.702956 -49.821206 -32.535183 0.000003 -0.000001 0.000002 0.558920 -4.406569 25.436673 1.653036 -3.560346 49.799107 1.737726 -3.630047 51.149224 -0.000001 -0.000003 -0.000002 10.969806 -12.875583 52.800846 6.387610 -4.324411 111.833658 0.247396 -1.499127 18.739129 0.000000 0.000002 -0.000009 3.705069 -7.151342 57.622440 5.328216 -4.608673 98.293430 1.627351 -3.538508 49.383979 -0.000001 -0.000000 -0.000003 0.474813 -5.172968 58.987672 3.194317 -4.421921 71.674168 1.771402 -3.656915 51.679554 0.000001 -0.000001 0.000002 -77.963331 -19.002845 50.100855 101.696237 -5.335474 -8.972217 43.999262 -5.694692 -3.344491 -2.292042 -0.000003 0.000004 0.000002 0.000000 0.000000 -42.680312 -11.796573 -41.376514 82.798367 26.621670 18.611606 3.634750 -3.516365 21.587851 0.000026 0.000023 0.000002 0.000000 0.000001 0.000001 
-5.902052 123.513405 5.141069 12.167404 -56.369732 3.093779 3.269512 10.248949 8.941421 4.307586 8.059200 0.372348 4.298486 8.150945 0.179223 10.149291 5.916026 -6.030327 -6.414672 18.863070 -2.065138 -0.000000 0.000000 0.000000 2.594082 0.731489 -7.356271 -62.242291 -37.904036 -44.508740 0.000234 -80.215292 0.000215 -63.944374 12.072715 45.398027 -14.557464 10.837968 12.229969 0.749540 -4.257863 13.305471 -10.783667 -23.179394 -4.132382 0.000001 -0.000000 -0.000003 -8.298310 -6.522677 -38.520146 2.848781 5.024380 -59.084422 0.876792 3.084725 -31.727506 0.000001 -0.000001 -0.000002 -6.054132 -0.166582 -49.857577 3.046281 5.137015 -61.313952 0.351705 2.001097 -19.935113 -0.000001 0.000002 0.000002 -2.430830 1.729225 -41.460918 2.952346 5.084720 -60.259938 1.321771 3.707977 -39.227843 0.000001 0.000000 0.000006 -0.809526 2.578170 -31.496420 3.095891 5.163781 -61.866972 0.503766 2.378640 -23.913122 -0.000000 0.000002 -0.000001 -15.392781 0.899369 -6.719212 64.150448 138.586150 -58.959696 0.000015 31.458752 -0.000019 -45.520192 -4.683188 -26.104457 8.377144 -4.904127 11.022009 21.620223 -18.183881 -18.379207 -0.702957 -49.821203 -32.535179 0.000004 0.000001 0.000002 0.558917 -4.406564 25.436676 1.653036 -3.560341 49.799111 1.737726 -3.630049 51.149227 -0.000001 -0.000001 -0.000001 10.969811 -12.875584 52.800849 6.387606 -4.324410 111.833652 0.247397 -1.499127 18.739128 0.000001 0.000001 -0.000004 3.705069 -7.151345 57.622440 5.328216 -4.608674 98.293430 1.627353 -3.538509 49.383985 0.000001 0.000001 -0.000003 0.474811 -5.172969 58.987672 3.194318 -4.421927 71.674168 1.771401 -3.656917 51.679557 -0.000000 -0.000001 -0.000001 -83.830982 -20.848068 53.393962 103.804593 -6.787137 -9.765047 41.261719 -6.363368 -4.056860 -6.569732 -0.000002 0.000001 -0.000000 0.000000 -0.000001 -49.622619 -11.085021 -47.731988 88.226441 28.592034 20.539741 2.061079 -0.890880 17.384517 -0.000003 0.000019 -0.000000 0.000002 0.000000 0.000001 
-6.122486 124.152481 4.770767 13.553008 -56.255849 4.721319 3.452412 10.578299 8.838179 4.491806 8.069155 0.429616 4.482067 8.169092 0.235540 10.807576 5.952525 -6.500650 -6.730465 19.127564 -2.473141 -0.000001 0.000000 0.000000 2.731168 0.633812 -7.915312 -62.755751 -38.129623 -45.613694 -0.000037 -79.442292 -0.000032 -63.658511 11.343332 44.637554 -14.557467 10.837967 12.229969 0.749542 -4.257865 13.305471 -10.783672 -23.179391 -4.132384 -0.000000 0.000002 -0.000002 -8.298309 -6.522673 -38.520143 2.848777 5.024381 -59.084428 0.876791 3.084717 -31.727506 0.000000 0.000001 -0.000000 -6.054132 -0.166585 -49.857577 3.046282 5.137013 -61.313952 0.351704 2.001096 -19.935114 -0.000000 -0.000001 0.000003 -2.430830 1.729225 -41.460915 2.952348 5.084717 -60.259938 1.321772 3.707977 -39.227839 0.000001 0.000000 0.000006 -0.809528 2.578167 -31.496420 3.095892 5.163778 -61.866972 0.503764 2.378647 -23.913122 -0.000001 0.000001 -0.000001 -15.438683 0.874442 -6.902525 64.067332 138.093434 -58.930080 0.000017 31.219692 0.000004 -45.032175 -4.885000 -26.168630 8.377142 -4.904130 11.022009 21.620221 -18.183876 -18.379204 -0.702963 -49.821200 -32.535179 0.000004 0.000000 -0.000000 0.558918 -4.406568 25.436678 1.653037 -3.560342 49.799111 1.737725 -3.630049 51.149227 -0.000002 0.000002 0.000001 10.969807 -12.875586 52.800853 6.387607 -4.324410 111.833652 0.247394 -1.499125 18.739133 -0.000000 -0.000000 -0.000009 3.705069 -7.151345 57.622440 5.328217 -4.608671 98.293430 1.627354 -3.538511 49.383982 -0.000000 -0.000000 -0.000005 0.474813 -5.172966 58.987679 3.194319 -4.421925 71.674168 1.771400 -3.656918 51.679554 0.000001 0.000000 0.000001 -85.210483 -20.829813 54.903779 102.388750 -7.775465 -10.440747 36.364914 -7.700196 -6.602869 -11.364779 -0.000002 -0.000001 -0.000002 0.000000 0.000000 -54.109667 -10.052579 -51.898906 89.970045 29.216920 21.600948 0.897605 2.935895 17.882224 -0.000001 0.000014 -0.000007 -0.000001 -0.000001 0.000000 
-6.188696 124.002792 4.003770 13.706678 -55.896059 5.360592 3.800951 10.443264 8.597869 4.809061 8.060047 0.537295 4.801730 8.168301 0.345033 11.292902 5.970721 -6.754843 -7.092068 19.438218 -2.845896 0.000001 -0.000000 0.000000 2.862753 0.618374 -8.468313 -62.958122 -38.503730 -46.557049 0.000111 -78.647463 0.000115 -63.487080 10.884147 43.877159 -14.557462 10.837972 12.229967 0.749542 -4.257866 13.305469 -10.783667 -23.179386 -4.132379 0.000001 0.000001 -0.000002 -8.298309 -6.522674 -38.520150 2.848777 5.024377 -59.084422 0.876788 3.084719 -31.727503 0.000002 0.000001 0.000001 -6.054133 -0.166584 -49.857581 3.046280 5.137013 -61.313952 0.351703 2.001096 -19.935116 -0.000000 0.000000 -0.000000 -2.430832 1.729223 -41.460918 2.952348 5.084719 -60.259938 1.321774 3.707978 -39.227843 0.000001 0.000000 0.000008 -0.809527 2.578167 -31.496413 3.095890 5.163778 -61.866972 0.503762 2.378642 -23.913121 -0.000002 -0.000000 -0.000001 -15.431726 0.860291 -6.847239 64.116365 137.379679 -58.813755 0.000023 31.051109 -0.000013 -44.924166 -5.125302 -26.373082 8.377144 -4.904127 11.022009 21.620218 -18.183876 -18.379204 -0.702961 -49.821203 -32.535179 0.000003 0.000001 -0.000000 0.558919 -4.406566 25.436675 1.653036 -3.560345 49.799111 1.737723 -3.630050 51.149227 -0.000000 -0.000001 -0.000001 10.969809 -12.875584 52.800846 6.387606 -4.324410 111.833658 0.247396 -1.499124 18.739129 0.000002 0.000001 -0.000006 3.705068 -7.151343 57.622440 5.328219 -4.608674 98.293430 1.627352 -3.538510 49.383985 -0.000001 -0.000000 -0.000007 0.474810 -5.172967 58.987672 3.194318 -4.421926 71.674168 1.771403 -3.656915 51.679561 0.000000 -0.000002 0.000002 -84.069718 -19.017579 53.720787 99.355306 -7.540938 -10.192863 28.142497 -5.462306 -8.351150 -14.499406 -0.000008 0.000001 0.000004 -0.000000 0.000000 -55.815357 -9.491003 -51.986161 88.541388 27.765349 21.255839 -0.682097 4.572511 20.726962 0.000005 -0.000010 -0.000004 -0.000000 0.000000 -0.000001 
